<svg xmlns="http://www.w3.org/2000/svg" viewBox="0 0 354.46 299.93"><defs><style>.cls-1{fill:#8b3b3e;}</style></defs><title>Quote</title><g id="Layer_2" data-name="Layer 2"><g id="Layer_1-2" data-name="Layer 1"><path class="cls-1" d="M122.7,136.33H75a20.35,20.35,0,0,1-20.45-20.45v-6.81a52.54,52.54,0,0,1,16-38.56,52.53,52.53,0,0,1,38.55-16H122.7a13.09,13.09,0,0,0,9.58-4,13.1,13.1,0,0,0,4.05-9.59V13.63a13.09,13.09,0,0,0-4.05-9.58,13.09,13.09,0,0,0-9.58-4H109.06A106.24,106.24,0,0,0,66.78,8.63,108,108,0,0,0,8.63,66.78,106.29,106.29,0,0,0,0,109.07V259a39.41,39.41,0,0,0,11.93,29,39.45,39.45,0,0,0,29,11.93h81.8A40.73,40.73,0,0,0,163.6,259v-81.8a40.73,40.73,0,0,0-40.9-40.9Z"/><path class="cls-1" d="M342.54,148.26a39.45,39.45,0,0,0-29-11.93H265.85a20.35,20.35,0,0,1-20.44-20.45v-6.81a52.53,52.53,0,0,1,16-38.56,52.53,52.53,0,0,1,38.56-16h13.63a13.11,13.11,0,0,0,9.59-4,13.14,13.14,0,0,0,4-9.59V13.63a13.13,13.13,0,0,0-4-9.58,13.11,13.11,0,0,0-9.59-4H299.94a106.25,106.25,0,0,0-42.29,8.63A108.11,108.11,0,0,0,199.5,66.78a106.29,106.29,0,0,0-8.63,42.29V259a40.73,40.73,0,0,0,40.9,40.9h81.8A40.73,40.73,0,0,0,354.46,259v-81.8A39.46,39.46,0,0,0,342.54,148.26Z"/></g></g></svg>